HIERARCHY
ROOT Hips
{
 OFFSET 0.000000 0.000000 0.000000
 CHANNELS 6 Xposition Yposition Zposition Yrotation Xrotation Zrotation
 JOINT Chest
 {
  OFFSET 0.000000 9.585900 0.002600
  CHANNELS 3 Yrotation Xrotation Zrotation
  JOINT Chest2
  {
   OFFSET 0.000000 9.601200 -0.005300
   CHANNELS 3 Yrotation Xrotation Zrotation
   JOINT Chest3
   {
    OFFSET 0.000000 9.561800 0.000000
    CHANNELS 3 Yrotation Xrotation Zrotation
    JOINT Chest4
    {
     OFFSET 0.000000 9.552100 0.000000
     CHANNELS 3 Yrotation Xrotation Zrotation
     JOINT Neck
     {
      OFFSET 0.000000 14.453000 0.000000
      CHANNELS 3 Yrotation Xrotation Zrotation
      JOINT Head
      {
       OFFSET 0.000000 8.936500 -0.011300
       CHANNELS 3 Yrotation Xrotation Zrotation
       End Site
       {
        OFFSET 0.000000 17.073600 -0.006000
       }
      }
     }
     JOINT RightCollar
     {
      OFFSET -2.921100 9.558500 0.000000
      CHANNELS 3 Yrotation Xrotation Zrotation
      JOINT RightShoulder
      {
       OFFSET -13.519700 0.000000 0.000000
       CHANNELS 3 Yrotation Xrotation Zrotation
       JOINT RightElbow
       {
        OFFSET 0.000000 -29.696600 0.000000
        CHANNELS 3 Yrotation Xrotation Zrotation
        JOINT RightWrist
        {
         OFFSET 0.000000 -24.004700 0.000000
         CHANNELS 3 Yrotation Xrotation Zrotation
         End Site
         {
          OFFSET 0.000000 -17.728500 0.000000
         }
        }
       }
      }
     }
     JOINT LeftCollar
     {
      OFFSET 2.921100 9.558500 0.000000
      CHANNELS 3 Yrotation Xrotation Zrotation
      JOINT LeftShoulder
      {
       OFFSET 13.519700 0.000000 0.000000
       CHANNELS 3 Yrotation Xrotation Zrotation
       JOINT LeftElbow
       {
        OFFSET 0.000000 -29.696600 0.000000
        CHANNELS 3 Yrotation Xrotation Zrotation
        JOINT LeftWrist
        {
         OFFSET 0.000000 -24.004700 0.000000
         CHANNELS 3 Yrotation Xrotation Zrotation
         End Site
         {
          OFFSET 0.000000 -17.728500 0.000000
         }
        }
       }
      }
     }
    }
   }
  }
 }
 JOINT RightHip
 {
  OFFSET -7.771700 -0.012900 -0.001300
  CHANNELS 3 Yrotation Xrotation Zrotation
  JOINT RightKnee
  {
   OFFSET 0.000000 -40.869800 0.001200
   CHANNELS 3 Yrotation Xrotation Zrotation
   JOINT RightAnkle
   {
    OFFSET 0.000000 -39.717900 0.002100
    CHANNELS 3 Yrotation Xrotation Zrotation
    JOINT RightToe
    {
     OFFSET 0.000000 -4.965400 11.033500
     CHANNELS 3 Yrotation Xrotation Zrotation
     End Site
     {
      OFFSET 0.000000 -1.423100 5.872300
     }
    }
   }
  }
 }
 JOINT LeftHip
 {
  OFFSET 7.771700 -0.012900 -0.001300
  CHANNELS 3 Yrotation Xrotation Zrotation
  JOINT LeftKnee
  {
   OFFSET 0.000000 -40.869800 0.001200
   CHANNELS 3 Yrotation Xrotation Zrotation
   JOINT LeftAnkle
   {
    OFFSET 0.000000 -39.717900 0.002100
    CHANNELS 3 Yrotation Xrotation Zrotation
    JOINT LeftToe
    {
     OFFSET 0.000000 -4.965400 11.033500
     CHANNELS 3 Yrotation Xrotation Zrotation
     End Site
     {
      OFFSET 0.000000 -1.423100 5.872300
     }
    }
   }
  }
 }
}
MOTION
Frames: 12
Frame Time: 0.008333
-19.215683 58.799820 71.815537 -177.317603 -38.541112 0.493554 -2.119803 29.498007 3.882066 -0.536093 5.684715 0.654700 -0.809263 8.817015 0.978329 -1.874328 23.608364 2.454335 0.406910 8.050304 -5.284008 3.411719 -20.693502 -10.682380 5.213535 -0.036191 -3.469463 22.288999 -34.189712 -16.659255 21.760073 -60.361939 -8.371520 24.301265 4.810247 -38.018647 -12.134589 -3.347636 -7.233535 -8.409064 -30.893070 -1.545109 -79.875024 -44.039932 56.264841 -32.365722 9.872612 -2.381122 6.430890 -31.850566 -8.149241 -7.039779 63.884127 -10.690897 4.725253 13.291878 10.129835 -0.328252 -6.765280 0.823797 -5.810683 -35.926979 -6.612119 22.225703 53.818281 18.862788 -8.185234 37.392528 2.902943 0.167400 -16.909472 -4.095667
-19.215401 58.799201 71.812292 -177.312716 -38.506789 0.484541 -2.118774 29.473768 3.893944 -0.537952 5.720176 0.666829 -0.811248 8.869854 1.003434 -1.881146 23.559219 2.445198 0.393016 7.996786 -5.319629 3.409467 -20.799982 -10.755763 5.205916 -0.034683 -3.477237 22.246908 -34.105635 -16.648807 22.173264 -60.544196 -8.772431 24.463038 4.984009 -37.636749 -12.110546 -3.288769 -7.201984 -8.348789 -30.938756 -1.559520 -79.972885 -44.202789 56.309809 -32.529630 9.793969 -2.688378 6.382023 -31.891625 -8.136896 -6.995439 63.889947 -10.665375 4.727390 13.291430 10.120099 -0.328700 -6.768253 0.818685 -5.768890 -35.963972 -6.629173 22.188008 53.829990 18.866689 -8.195528 37.405376 2.902678 0.157243 -16.924672 -4.094809
-19.214616 58.798321 71.809597 -177.307480 -38.469694 0.477910 -2.121564 29.479143 3.909694 -0.535611 5.725395 0.672636 -0.811989 8.875552 1.008832 -1.884956 23.561374 2.457402 0.382102 7.940752 -5.357774 3.405227 -20.907671 -10.829022 5.201876 -0.034736 -3.485886 22.201534 -34.022485 -16.639593 22.595203 -60.729643 -9.181685 24.621940 5.174081 -37.248283 -12.095296 -3.289537 -7.194187 -8.279430 -30.931268 -1.551155 -80.043270 -44.482232 56.310341 -32.796204 9.768166 -2.988415 6.323843 -31.937117 -8.119956 -6.972379 63.897045 -10.669364 4.738069 13.281146 10.110398 -0.329787 -6.763687 0.813906 -5.740463 -36.001943 -6.634442 22.163796 53.837901 18.868901 -8.231641 37.409853 2.884209 0.173568 -16.929384 -4.092097
-19.212675 58.798519 71.805775 -177.285797 -38.441540 0.460073 -2.130545 29.494326 3.932001 -0.537786 5.729970 0.678325 -0.812398 8.881651 1.014243 -1.876619 23.611284 2.497072 0.358883 7.837137 -5.419939 3.399803 -21.015423 -10.903082 5.186684 -0.078836 -3.519939 22.156425 -33.937972 -16.633944 23.020457 -60.920154 -9.594999 24.774233 5.379070 -36.852376 -12.097750 -3.374224 -7.212731 -8.209640 -30.892500 -1.525876 -80.134302 -44.681431 56.348027 -32.983397 9.707387 -3.267175 6.240503 -31.974556 -8.100980 -6.977839 63.908545 -10.683100 4.722733 13.260211 10.064483 -0.294323 -6.748225 0.813276 -5.742501 -36.030038 -6.632030 22.151299 53.841784 18.870421 -8.246768 37.410948 2.876867 0.178580 -16.929637 -4.090729
-19.211000 58.795951 71.805769 -177.286231 -38.383879 0.464564 -2.132887 29.481247 3.943822 -0.530733 5.733446 0.685583 -0.813371 8.888056 1.019878 -1.873043 23.632451 2.520606 0.339146 7.762386 -5.467654 3.394337 -21.123336 -10.979166 5.174091 -0.092445 -3.537091 22.108662 -33.851494 -16.628720 23.448865 -61.113286 -10.015818 24.917616 5.593113 -36.445957 -12.086657 -3.383123 -7.201220 -8.160941 -30.897606 -1.514600 -80.230315 -44.840242 56.403548 -33.132379 9.632858 -3.516021 6.172498 -32.042941 -8.082918 -6.919924 63.914695 -10.674214 4.724086 13.246040 10.061736 -0.303349 -6.736584 0.804363 -5.722258 -36.087675 -6.635370 22.155809 53.842690 18.880858 -8.261732 37.401495 2.881632 0.178990 -16.920777 -4.091422
-19.208858 58.796213 71.802399 -177.276822 -38.350213 0.463624 -2.121583 29.534196 3.990429 -0.541566 5.681235 0.663276 -0.816634 8.879140 1.017083 -1.873595 23.635362 2.527804 0.330970 7.732647 -5.487640 3.391025 -21.231029 -11.058518 5.173036 -0.059398 -3.524630 22.057829 -33.764856 -16.624928 23.879039 -61.303603 -10.444210 25.049689 5.808912 -36.030468 -12.072930 -3.356677 -7.182046 -8.124963 -30.882853 -1.494010 -80.304012 -45.112159 56.424572 -33.389132 9.624535 -3.745353 6.087909 -32.086941 -8.059521 -6.854254 63.922673 -10.662379 4.727631 13.241157 10.061716 -0.306764 -6.737648 0.791453 -5.676613 -36.115347 -6.647036 22.118265 53.846893 18.862229 -8.289606 37.398423 2.877724 0.194190 -16.918010 -4.085000
-19.206521 58.799766 71.795044 -177.250464 -38.344384 0.451880 -2.138300 29.550929 3.999370 -0.544793 5.670008 0.658631 -0.814739 8.894725 1.026027 -1.873602 23.638334 2.535791 0.322073 7.702551 -5.507950 3.390900 -21.338091 -11.138293 5.172047 -0.024998 -3.510900 22.013617 -33.677770 -16.628333 24.304685 -61.491789 -10.876862 25.170769 6.025394 -35.612133 -12.056652 -3.330495 -7.167157 -8.110613 -30.862725 -1.467919 -80.394719 -45.294806 56.480433 -33.567907 9.595198 -3.939667 5.984959 -32.105794 -8.049162 -6.846381 63.943157 -10.656641 4.707527 13.228063 9.984860 -0.261108 -6.733783 0.800585 -5.677162 -36.117757 -6.652537 22.111497 53.849594 18.850540 -8.268158 37.400612 2.913780 0.176972 -16.922547 -4.091136
-19.205547 58.801118 71.790624 -177.235483 -38.313515 0.455338 -2.134470 29.580528 4.025157 -0.551283 5.661311 0.657659 -0.815863 8.900913 1.032153 -1.873472 23.643466 2.551317 0.316590 7.652340 -5.554149 3.372483 -21.456655 -11.207667 5.159967 -0.024072 -3.516765 21.976079 -33.589398 -16.636933 24.725789 -61.680641 -11.314718 25.283032 6.240680 -35.195364 -12.044217 -3.325753 -7.157312 -8.116973 -30.857327 -1.446009 -80.487546 -45.400006 56.568503 -33.685386 9.543040 -4.107703 5.898755 -32.149999 -8.055008 -6.823768 63.957794 -10.645271 4.712007 13.220558 9.937105 -0.236152 -6.732561 0.796415 -5.648956 -36.144451 -6.672124 22.082945 53.855674 18.824718 -8.232808 37.390397 2.961395 0.157463 -16.914765 -4.099199
-19.205334 58.801073 71.788095 -177.225257 -38.265070 0.463284 -2.126323 29.593446 4.049685 -0.543207 5.695388 0.675904 -0.815362 8.914148 1.043140 -1.866251 23.655654 2.579406 0.269541 7.530582 -5.612496 3.372503 -21.562731 -11.285439 5.121705 -0.081065 -3.545548 21.936121 -33.501700 -16.645130 25.147562 -61.870739 -11.757869 25.389100 6.451092 -34.780902 -12.076164 -3.429774 -7.171352 -8.116585 -30.806436 -1.413460 -80.579950 -45.489879 56.663679 -33.797207 9.501506 -4.256044 5.841398 -32.208671 -8.073657 -6.813746 63.968211 -10.636988 4.720365 13.216701 9.904907 -0.212017 -6.731954 0.786186 -5.615533 -36.187908 -6.694917 22.053755 53.859656 18.803067 -8.202550 37.373555 3.003292 0.142001 -16.899024 -4.107550
-19.204699 58.802211 71.783960 -177.218026 -38.225308 0.464578 -2.125620 29.578589 4.059786 -0.531945 5.739896 0.697616 -0.813482 8.922986 1.050808 -1.857196 23.663905 2.599687 0.234124 7.446121 -5.653637 3.374320 -21.667829 -11.364418 5.092764 -0.101235 -3.553025 21.892220 -33.417241 -16.652179 25.560174 -62.061634 -12.189266 25.491586 6.659732 -34.375990 -12.100017 -3.493093 -7.175895 -8.119449 -30.757504 -1.387082 -80.682482 -45.583293 56.763911 -33.914810 9.483140 -4.387829 5.822044 -32.251864 -8.088771 -6.839171 63.974681 -10.646097 4.714608 13.219638 9.882471 -0.194618 -6.736351 0.778720 -5.586000 -36.218281 -6.709287 22.018634 53.858747 18.786274 -8.201379 37.357148 3.007663 0.138715 -16.882758 -4.104237
-19.207657 58.802809 71.780606 -177.229323 -38.178174 0.492576 -2.108066 29.593476 4.075991 -0.533958 5.731497 0.696354 -0.811477 8.929418 1.057238 -1.848560 23.669796 2.616902 0.215444 7.387495 -5.695233 3.363272 -21.775574 -11.435748 5.072624 -0.100169 -3.553981 21.844891 -33.337530 -16.659208 25.946456 -62.251707 -12.589490 25.588161 6.866951 -33.992243 -12.107929 -3.498763 -7.174011 -8.139579 -30.743542 -1.365339 -80.773066 -45.649594 56.861802 -34.012862 9.458516 -4.490790 5.776421 -32.308547 -8.114201 -6.734775 63.985539 -10.576712 4.743325 13.220386 9.902859 -0.225691 -6.744788 0.747879 -5.495706 -36.251916 -6.750991 21.954646 53.865563 18.749150 -8.200414 37.318981 3.018279 0.139063 -16.849484 -4.091831
-19.210794 58.806344 71.773342 -177.251262 -38.158778 0.520864 -2.082119 29.636026 4.097279 -0.536235 5.723483 0.694399 -0.809054 8.936209 1.063829 -1.838596 23.676043 2.634630 0.209639 7.337946 -5.738408 3.338092 -21.890036 -11.504675 5.054805 -0.098278 -3.557582 21.795459 -33.263852 -16.665341 26.295592 -62.437875 -12.951314 25.672717 7.069653 -33.635266 -12.100369 -3.452493 -7.147654 -8.170705 -30.781806 -1.370426 -80.878395 -45.700189 56.991064 -34.090149 9.436211 -4.586852 5.746678 -32.338279 -8.149163 -6.670858 64.002244 -10.503801 4.763612 13.222621 9.878675 -0.227594 -6.755391 0.729819 -5.443186 -36.268788 -6.766858 21.994116 53.880449 18.752762 -8.147607 37.283556 3.121329 0.091178 -16.829147 -4.106529
